/* XPM */
static char * max_xpm[] = {
"6 6 3 1",
" 	c None",
".	c #303030",
"+	c #606060",
"......",
".++++.",
".+..+.",
".+..+.",
".++++.",
"......"};
