/* XPM */
static char * max_new_xpm[] = {
"6 6 4 1",
" 	c None",
".	c #303030",
"+	c #606060",
"@	c #5F5F5F",
"......",
".++++.",
".+@++.",
".++@+.",
".++++.",
"......"};
