/* XPM */
static char * iconify_xpm[] = {
"6 6 3 1",
" 	c None",
".	c #000000",
"+	c #FFFFFF",
"......",
"......",
"......",
".++++.",
"......",
"......"};
