/* XPM */
static char * close_xpm[] = {
"6 6 8 1",
" 	c None",
".	c #D2D2D2",
"+	c #D3D3D3",
"@	c #D1D1D1",
"#	c #D4D4D4",
"$	c #99A9B7",
"%	c #D1D2D2",
"&	c #D0D0D0",
".+@...",
"#$@@$.",
"@.$$%.",
"+.$$@&",
"&$@@$@",
"@@.+##"};
